<svg width="122" height="74" viewBox="0 0 122 74" fill="none" xmlns="http://www.w3.org/2000/svg">
<rect x="27" width="74" height="74" rx="16" fill="url(#paint0_linear_1539_54841)"/>
<path d="M6.16683 60.2392L6.16683 62.5517C6.16683 62.9605 5.80487 63.3225 5.39599 63.3225L3.85433 63.3225C3.44545 63.3225 3.08349 62.9605 3.08349 62.5517L3.08349 60.2392L0.770994 60.2392C0.36212 60.2392 0.000160518 59.8772 0.000160554 59.4683L0.000160689 57.9267C0.000160725 57.5178 0.36212 57.1558 0.770995 57.1558L3.08349 57.1558L3.08349 54.8433C3.08349 54.4345 3.44545 54.0725 3.85433 54.0725L5.39599 54.0725C5.80487 54.0725 6.16683 54.4345 6.16683 54.8433L6.16683 57.1558L8.47933 57.1558C8.88821 57.1558 9.25016 57.5178 9.25016 57.9267L9.25016 59.4683C9.25016 59.8772 8.8882 60.2392 8.47933 60.2392L6.16683 60.2392Z" fill="#3662D8"/>
<path d="M23.1252 52.5308L23.1252 59.4683C23.1252 59.8772 22.7632 60.2392 22.3543 60.2392L19.271 60.2392C18.8621 60.2392 18.5002 59.8772 18.5002 59.4683L18.5002 52.5308L11.5627 52.5308C11.1538 52.5308 10.7918 52.1689 10.7918 51.76L10.7918 48.6767C10.7918 48.2678 11.1538 47.9058 11.5627 47.9058L18.5002 47.9058L18.5002 40.9683C18.5002 40.5595 18.8621 40.1975 19.271 40.1975L22.3543 40.1975C22.7632 40.1975 23.1252 40.5595 23.1252 40.9683L23.1252 47.9058L30.0627 47.9058C30.4715 47.9058 30.8335 48.2678 30.8335 48.6767L30.8335 51.76C30.8335 52.1689 30.4715 52.5308 30.0627 52.5308L23.1252 52.5308Z" fill="#3662D8"/>
<path fill-rule="evenodd" clip-rule="evenodd" d="M74.1525 44.999L76.6586 42.5735L83.8126 35.4195C84.1 35.1322 84.2794 34.5662 84.2059 34.1628L81.5523 19.5937C81.4803 19.1981 81.0886 18.8039 80.6806 18.7307L66.1792 16.1275C65.7743 16.0548 65.2049 16.2305 64.9143 16.5212L43.3284 38.107C43.0411 38.3944 43.0373 38.8684 43.3273 39.1585L61.1753 57.0065C61.4616 57.2927 61.9361 57.296 62.2268 57.0054L70.9172 48.315C72.089 49.4686 73.7316 50.133 75.501 50.0093C78.7739 49.7804 81.2415 46.9421 81.0127 43.6698C81.0098 43.6287 81.0077 43.5615 81.0049 43.473C80.9865 42.8885 80.939 41.3782 80.4522 40.3726L78.0561 42.6347C78.149 43.0315 78.2194 43.3551 78.2275 43.4715C78.3499 45.221 77.0306 46.7384 75.2809 46.8607C73.5311 46.9831 72.0135 45.664 71.8912 43.9146C71.8191 42.883 72.278 39.1138 72.9188 35.5656C73.2563 33.6968 73.6131 32.0545 73.9441 30.8779C73.9861 30.7287 74.0274 30.5879 74.0679 30.4558L74.1087 30.5414C74.5273 30.3789 74.9198 30.1286 75.2578 29.7907C76.5596 28.4888 76.5598 26.3782 75.2581 25.0766C73.9565 23.7749 71.8459 23.775 70.544 25.0769C69.2422 26.3788 69.242 28.4893 70.5437 29.791C70.7447 29.9921 70.9651 30.162 71.1987 30.301C70.9234 31.4713 70.6461 32.8948 70.339 34.5952C69.5877 38.7554 69.0614 43.0775 69.1608 44.4986C69.1643 44.5491 69.1685 44.5994 69.1732 44.6494L67.4701 46.3539L53.9769 32.8746L66.4 20.4598C66.5463 20.3136 66.826 20.2241 67.0311 20.2611L77.6889 22.1861C77.8911 22.2226 78.0852 22.4129 78.1238 22.6175L80.1282 33.2514C80.1662 33.4531 80.0792 33.7346 79.9312 33.8827L73.5637 40.2554C73.1534 41.7857 72.6735 44.465 74.1525 44.999ZM61.3143 51.9762L48.4016 38.9992C48.2533 38.8501 48.2507 38.6115 48.3937 38.4685L51.9265 34.9358L65.4138 48.4182L61.8463 51.9831C61.7008 52.1284 61.4667 52.1294 61.3143 51.9762Z" fill="#202843"/>
<path d="M116.07 11.4197C115.658 11.4197 115.294 11.7844 115.294 12.1963V14.5259H112.964C112.552 14.5259 112.188 14.8905 112.188 15.3024V16.8555C112.188 17.2674 112.552 17.6321 112.964 17.6321H115.294V19.9617C115.294 20.3736 115.658 20.7382 116.07 20.7382H117.623C118.035 20.7382 118.4 20.3736 118.4 19.9617V17.6321H120.73C121.141 17.6321 121.506 17.2674 121.506 16.8555V15.3024C121.506 14.8905 121.141 14.5259 120.73 14.5259H118.4V12.1963C118.4 11.7844 118.035 11.4197 117.623 11.4197H116.07ZM106.752 3.6543C106.34 3.6543 105.975 4.01894 105.975 4.43084V6.76047H103.646C103.234 6.76047 102.869 7.12511 102.869 7.53701V9.0901C102.869 9.502 103.234 9.86664 103.646 9.86664H105.975V12.1963C105.975 12.6082 106.34 12.9728 106.752 12.9728H108.305C108.717 12.9728 109.081 12.6082 109.081 12.1963V9.86664H111.411C111.823 9.86664 112.188 9.502 112.188 9.0901V7.53701C112.188 7.12511 111.823 6.76047 111.411 6.76047H109.081V4.43084C109.081 4.01894 108.717 3.6543 108.305 3.6543H106.752ZM98.9863 14.5259C98.5744 14.5259 98.2098 14.8905 98.2098 15.3024V22.2913H91.2209C90.809 22.2913 90.4443 22.656 90.4443 23.0679V26.174C90.4443 26.586 90.809 26.9506 91.2209 26.9506H98.2098V33.9395C98.2098 34.3514 98.5744 34.716 98.9863 34.716H102.092C102.504 34.716 102.869 34.3514 102.869 33.9395V26.9506H109.858C110.27 26.9506 110.634 26.586 110.634 26.174V23.0679C110.634 22.656 110.27 22.2913 109.858 22.2913H102.869V15.3024C102.869 14.8905 102.504 14.5259 102.092 14.5259H98.9863Z" fill="#3662D8"/>
<defs>
<linearGradient id="paint0_linear_1539_54841" x1="40.875" y1="6.9375" x2="87.125" y2="68.6042" gradientUnits="userSpaceOnUse">
<stop stop-color="#FFC94C"/>
<stop offset="1" stop-color="#FFC94C"/>
</linearGradient>
</defs>
</svg>
